<svg width="30" height="30" viewBox="0 0 30 30" fill="none" xmlns="http://www.w3.org/2000/svg">
<g clip-path="url(#clip0)">
<path opacity="0.4" d="M20.4001 10.625V14.4559L18.6001 13.8934V11.5H11.4001V13.8934L9.6001 14.4559V10.625C9.6001 10.3929 9.69492 10.1704 9.8637 10.0063C10.0325 9.84219 10.2614 9.75 10.5001 9.75H12.3001V8.65625C12.3001 8.4822 12.3712 8.31528 12.4978 8.19221C12.6244 8.06914 12.7961 8 12.9751 8H17.0251C17.2041 8 17.3758 8.06914 17.5024 8.19221C17.629 8.31528 17.7001 8.4822 17.7001 8.65625V9.75H19.5001C19.7388 9.75 19.9677 9.84219 20.1365 10.0063C20.3053 10.1704 20.4001 10.3929 20.4001 10.625Z" fill="#0088FF"/>
<path d="M24 20.9064V21.3439C24 21.5179 23.9289 21.6849 23.8023 21.8079C23.6757 21.931 23.504 22.0001 23.325 22.0001C21.6094 22.0001 20.3016 21.4363 19.2958 20.3759C19.0915 20.8562 18.7454 21.2668 18.3012 21.5559C17.857 21.845 17.3346 21.9996 16.8 22.0001H13.2C12.6654 21.9996 12.143 21.845 11.6988 21.5559C11.2546 21.2668 10.9085 20.8562 10.7042 20.3759C9.69844 21.4366 8.39062 22.0001 6.675 22.0001C6.49598 22.0001 6.32429 21.931 6.1977 21.8079C6.07112 21.6849 6 21.5179 6 21.3439V20.9064C6 20.7323 6.07112 20.5654 6.1977 20.4424C6.32429 20.3193 6.49598 20.2501 6.675 20.2501C8.40722 20.2501 9.53897 19.3831 10.0326 18.1895L8.06381 16.2755C7.95477 16.1694 7.87559 16.0379 7.83386 15.8936C7.79213 15.7492 7.78926 15.5969 7.82551 15.4511C7.86177 15.3054 7.93593 15.1711 8.0409 15.0613C8.14587 14.9514 8.27811 14.8697 8.42494 14.8238L14.7249 12.855C14.904 12.799 15.0966 12.799 15.2756 12.855L21.5756 14.8238C21.7225 14.8697 21.8547 14.9514 21.9597 15.0613C22.0646 15.1711 22.1388 15.3054 22.1751 15.4511C22.2113 15.5969 22.2084 15.7492 22.1667 15.8936C22.125 16.0379 22.0458 16.1694 21.9367 16.2755L19.968 18.1895C20.4692 19.4025 21.6144 20.2501 23.325 20.2501C23.504 20.2501 23.6757 20.3193 23.8023 20.4424C23.9289 20.5654 24 20.7323 24 20.9064V20.9064Z" fill="#0088FF"/>
</g>
<defs>
<clipPath id="clip0">
<rect width="18" height="14" fill="white" transform="translate(6 8)"/>
</clipPath>
</defs>
</svg>
