<svg fill="none" height="30" viewBox="0 0 30 30" width="30" xmlns="http://www.w3.org/2000/svg"><g fill="#d5dee7"><path d="m30 23.4375v1.875c0 .2486-.0988.4871-.2746.6629s-.4143.2746-.6629.2746h-27.1875c-.49728 0-.974194-.1975-1.325825-.5492-.351631-.3516-.549175-.8285-.549175-1.3258v-19.6875c0-.24864.0987721-.4871.274587-.66291.175816-.17582.414273-.27459.662913-.27459h1.875c.24864 0 .4871.09877.66291.27459.17582.17581.27459.41427.27459.66291v17.8125h25.3125c.2486 0 .4871.0988.6629.2746s.2746.4143.2746.6629z" opacity=".4"/><path d="m16.125 5.625h-2.25c-.375 0-.75.375-.75.75v11.625c0 .375.375.75.75.75h2.25c.375 0 .75-.375.75-.75v-11.625c0-.375-.375-.75-.75-.75zm-5.625 7.5h-2.25c-.375 0-.75.375-.75.75v4.125c0 .375.375.75.75.75h2.25c.375 0 .75-.375.75-.75v-4.125c0-.375-.375-.75-.75-.75zm16.875-9.375h-2.25c-.375 0-.75.375-.75.75v13.5c0 .375.375.75.75.75h2.25c.375 0 .75-.375.75-.75v-13.5c0-.375-.375-.75-.75-.75zm-5.625 5.625h-2.25c-.375 0-.75.375-.75.75v7.875c0 .375.375.75.75.75h2.25c.375 0 .75-.375.75-.75v-7.875c0-.375-.375-.75-.75-.75z"/></g></svg>