<svg fill="none" height="184" viewBox="0 0 161 184" width="161" xmlns="http://www.w3.org/2000/svg" xmlns:xlink="http://www.w3.org/1999/xlink"><filter id="a" color-interpolation-filters="sRGB" filterUnits="userSpaceOnUse" height="146" width="146" x="8.00006" y="38"><feFlood flood-opacity="0" result="BackgroundImageFix"/><feColorMatrix in="SourceAlpha" type="matrix" values="0 0 0 0 0 0 0 0 0 0 0 0 0 0 0 0 0 0 127 0"/><feOffset dy="4"/><feGaussianBlur stdDeviation="15"/><feColorMatrix type="matrix" values="0 0 0 0 0.89375 0 0 0 0 0.924219 0 0 0 0 0.975 0 0 0 1 0"/><feBlend in2="BackgroundImageFix" mode="normal" result="effect1_dropShadow"/><feBlend in="SourceGraphic" in2="effect1_dropShadow" mode="normal" result="shape"/></filter><clipPath id="b"><path d="m98.7422 0h16.3964v16.3964h-16.3964z" transform="matrix(.91155333 .41118188 -.41118188 .91155333 8.733419 -40.601003)"/></clipPath><clipPath id="c"><path d="m100 44h9v9h-9z"/></clipPath><g filter="url(#a)"><circle cx="81.0001" cy="107" fill="#fff" r="43"/></g><path d="m90.35 124.249-5.53-5.529c-.2495-.25-.5879-.389-.9429-.389h-.9041c1.5309-1.957 2.4405-4.419 2.4405-7.098 0-6.372-5.1638-11.5348-11.5368-11.5348s-11.5368 5.1628-11.5368 11.5348 5.1638 11.535 11.5368 11.535c2.679 0 5.1417-.91 7.0996-2.44v.904c0 .355.1387.693.3882.943l5.53 5.529c.5213.521 1.3644.521 1.8802 0l1.5697-1.57c.5214-.521.5214-1.364.0056-1.885zm-16.4733-5.918c-3.9214 0-7.0996-3.172-7.0996-7.098 0-3.921 3.1727-7.098 7.0996-7.098 3.9214 0 7.0996 3.172 7.0996 7.098 0 3.921-3.1726 7.098-7.0996 7.098z" fill="#25a481"/><path d="m90.7361 85.9058c2.3669 0 4.6369.9532 6.3106 2.65s2.6139 3.9981 2.6139 6.3977c0 4.04-5.8328 11.4035-8.0674 14.0745-.1049.127-.236.229-.3841.3-.148.07-.3095.106-.473.106s-.3249-.036-.473-.106c-.1481-.071-.2792-.173-.384-.3-2.2347-2.671-8.0675-10.0345-8.0675-14.0745 0-2.3996.9402-4.7009 2.6139-6.3977s3.9437-2.65 6.3106-2.65zm0 12.0637c.5884 0 1.1635-.1769 1.6528-.5083.4892-.3314.8705-.8024 1.0956-1.3535.2252-.5511.2841-1.1575.1693-1.7425-.1148-.5851-.3981-1.1225-.8142-1.5442-.416-.4218-.9461-.7091-1.5231-.8254-.5771-.1164-1.1752-.0567-1.7188.1716s-1.0082.6148-1.3351 1.1108-.5013 1.0791-.5013 1.6755c0 .7999.3134 1.567.8713 2.1326s1.3145.8834 2.1035.8834z" fill="#25a481" opacity=".3"/><g clip-path="url(#b)" opacity=".4"><path d="m110.272 13.0702-1.485-.67c.663-2.52314-.351-5.20324-2.518-6.65552l.67-1.48528c.116-.25806.001-.56135-.257-.67776l-.934-.42137c-.258-.1164-.561-.00167-.677.25639l-.67 1.48528c-2.524-.66352-5.2037.35032-6.656 2.5177l-1.4853-.66998c-.258-.11641-.5613-.00167-.6777.25638l-.4214.93414c-.1164.25806-.0017.56135.2564.67776l1.4853.66997c-.6635 2.52319.3503 5.20329 2.5177 6.65559l-.67 1.4852c-.1164.2581-.0017.5614.2564.6778l.9341.4214c.2585.1164.5615.0016.6775-.2564l.67-1.4853c2.523.6635 5.204-.3503 6.656-2.5177l1.485.67c.258.1164.561.0017.678-.2564l.421-.9341c.117-.2581.002-.5614-.256-.6778zm-9.113 1.5104c-2.0639-.9309-2.982-3.3584-2.0512-5.42201.9312-2.06357 3.3582-2.98204 5.4222-2.05108 2.064.93097 2.982 3.35849 2.051 5.42199-.931 2.0636-3.358 2.9821-5.422 2.0511zm2.844-6.30541c-1.419-.63996-3.088-.00861-3.727 1.41011-.6404 1.4187-.009 3.0877 1.41 3.7277 1.418.6399 3.087.0086 3.727-1.4102.64-1.4187.009-3.08766-1.41-3.72761z" fill="#e8eff6"/></g><path d="m14.7266 23.4095-3.1494.7748c-.1422.0349-.264.1252-.3402.2512l-.1942.3208c-.3658-.9636-1.04415-1.8152-1.99456-2.3904-2.2609-1.3685-5.20183-.645-6.57051 1.6162-1.36867 2.2613-.64573 5.2024 1.61517 6.5708 2.2609 1.3685 5.20183.645 6.5705-1.6163.5754-.9505.7815-2.0197.6589-3.0431l.3208.1941c.1259.0763.2757.0997.4179.0647l3.1494-.7747c.2969-.073.478-.3722.4038-.6671l-.2198-.8941c-.0729-.2969-.372-.4779-.6678-.4069zm-5.63736 4.5744c-.84217 1.3914-2.65025 1.8378-4.04339.9946-1.39117-.842-1.83731-2.6502-.99395-4.0436.84217-1.3914 2.65025-1.8378 4.04339-.9946 1.39117.842 1.83731 2.6502.99395 4.0436z" fill="#e8eff6" opacity=".4"/><path d="m67.7665 41.1785-2.5688.6319c-.1159.0285-.2153.1022-.2775.2049l-.1584.2616c-.2983-.7859-.8516-1.4805-1.6268-1.9497-1.844-1.1161-4.2428-.526-5.3591 1.3183-1.1164 1.8444-.5267 4.2433 1.3174 5.3594 1.844 1.1162 4.2428.5261 5.3591-1.3183.4693-.7753.6374-1.6473.5375-2.4821l.2616.1584c.1027.0621.2249.0813.3408.0527l2.5688-.6319c.2422-.0595.3899-.3035.3294-.5441l-.1793-.7292c-.0595-.2422-.3035-.3899-.5447-.3319zm-4.598 3.731c-.6869 1.1349-2.1617 1.499-3.298.8112-1.1347-.6867-1.4985-2.1615-.8107-3.298.6869-1.1349 2.1617-1.4991 3.298-.8113 1.1347.6868 1.4985 2.1616.8107 3.2981z" fill="#cbd7e6"/><path d="m159.412 30.7766-2.227.5477c-.1.0248-.186.0886-.24.1776l-.137.2268c-.259-.6813-.739-1.2833-1.411-1.69-1.598-.9676-3.677-.4561-4.645 1.1427s-.457 3.6782 1.142 4.6458c1.598.9675 3.678.456 4.645-1.1428.407-.6721.553-1.428.466-2.1516l.227.1373c.089.0539.195.0704.296.0457l2.226-.5477c.21-.0517.338-.2632.286-.4717l-.156-.6321c-.051-.21-.263-.338-.472-.2877zm-3.986 3.2342c-.595.9837-1.873 1.2994-2.858.7032-.984-.5953-1.299-1.8738-.703-2.8589.595-.9838 1.874-1.2995 2.859-.7033.983.5954 1.299 1.8738.702 2.859z" fill="#e8eff6" opacity=".4"/><g fill="#cbd7e6"><path d="m110.419 36.3352-2.084-.9398c.931-3.5393-.491-7.2988-3.531-9.336l.94-2.0835c.163-.3619.002-.7874-.36-.9507l-1.31-.591c-.362-.1633-.788-.0024-.951.3596l-.94 2.0835c-3.5394-.9308-7.2989.4914-9.336 3.5316l-2.0835-.9398c-.362-.1632-.7874-.0023-.9507.3597l-.5911 1.3103c-.1633.362-.0024.7875.3596.9508l2.0835.9398c-.9307 3.5393.4914 7.2988 3.5317 9.336l-.9398 2.0835c-.1633.362-.0024.7874.3596.9507l1.3104.5911c.362.1632.7874.0023.9507-.3597l.9398-2.0835c3.5398.9308 7.2988-.4914 9.3358-3.5316l2.084.9398c.362.1632.787.0023.95-.3597l.591-1.3103c.164-.362.003-.7875-.359-.9508zm-12.7832 2.1188c-2.8951-1.3059-4.1829-4.7111-2.8771-7.6057 1.3057-2.8947 4.7106-4.1831 7.6053-2.8772 2.895 1.3059 4.183 4.7111 2.878 7.6057-1.306 2.8947-4.711 4.1831-7.6062 2.8772zm3.9902-8.8449c-1.9906-.8977-4.3317-.0121-5.2294 1.978s-.0121 4.3312 1.978 5.2289c1.9904.8977 4.3314.0121 5.2294-1.978.897-1.9901.012-4.3312-1.978-5.2289z"/><path d="m153.51 104.233-1.284-.579c.574-2.18-.302-4.496-2.175-5.751l.579-1.2834c.1-.223.001-.4851-.222-.5857l-.807-.3641c-.223-.1006-.485-.0015-.586.2215l-.579 1.2835c-2.18-.5734-4.496.3027-5.751 2.1756l-1.283-.579c-.223-.1005-.485-.0014-.586.2216l-.364.8072c-.101.2228-.001.4848.222.5858l1.283.579c-.573 2.18.303 4.496 2.176 5.751l-.579 1.284c-.101.222-.002.485.221.585l.807.364c.223.101.485.002.586-.221l.579-1.284c2.18.574 4.496-.302 5.751-2.175l1.284.579c.223.1.485.001.585-.222l.364-.807c.101-.223.002-.485-.221-.586zm-7.875 1.305c-1.783-.804-2.576-2.902-1.772-4.685.804-1.7831 2.902-2.5768 4.685-1.7723 1.784.8044 2.577 2.9023 1.773 4.6853-.805 1.783-2.902 2.577-4.686 1.772zm2.458-5.448c-1.226-.5533-2.668-.008-3.221 1.218s-.008 2.668 1.218 3.221 2.669.008 3.222-1.218.007-2.668-1.219-3.221z"/><path d="m13.3397 47.0354.9494 4.5842c.0428.2069.1666.3875.3442.5042l.4523.2972c-1.4094.4762-2.674 1.4092-3.5544 2.7494-2.09461 3.1882-1.2081 7.4689 1.9807 9.5638 3.1887 2.095 7.4696 1.2091 9.5641-1.979 2.0946-3.1882 1.2081-7.469-1.9807-9.5639-1.3404-.8806-2.8715-1.2351-4.3543-1.1129l.2971-.4523c.1167-.1775.1585-.3924.1156-.5993l-.9494-4.5842c-.0895-.4322-.5113-.7093-.9407-.6181l-1.3013.2693c-.4323.0894-.7093.5112-.6226.9416zm6.2973 8.3757c1.9621 1.2891 2.5095 3.9209 1.2189 5.8854-1.2889 1.9618-3.9208 2.5088-5.8857 1.2179-1.9621-1.289-2.5095-3.9209-1.2189-5.8854 1.2889-1.9617 3.9208-2.5088 5.8857-1.2179z"/><path d="m151.033 57.478-1.871 1.0805c-.084.0487-.146.1291-.171.2239l-.065.2413c-.413-.5486-1.005-.9674-1.72-1.159-1.7-.4557-3.447.5533-3.903 2.2542-.456 1.7008.553 3.4482 2.253 3.9039 1.701.4556 3.448-.5533 3.904-2.2542.191-.715.125-1.4373-.144-2.0693l.242.0647c.094.0254.195.0125.279-.0362l1.871-1.0805c.176-.1019.237-.3269.135-.5018l-.307-.5312c-.102-.1764-.327-.2367-.503-.1363zm-2.757 3.9734c-.281 1.0465-1.354 1.6679-2.402 1.3871-1.047-.2804-1.668-1.3543-1.387-2.4024.28-1.0466 1.354-1.6679 2.402-1.3872 1.046.2804 1.668 1.3544 1.387 2.4025z"/><path d="m20.3272 98.7653c-2.2744 0-4.1172 1.8427-4.1172 4.1177 0 2.274 1.8428 4.117 4.1172 4.117 2.2745 0 4.1173-1.843 4.1173-4.117 0-2.275-1.8428-4.1177-4.1173-4.1177zm-1.9573 2.3427c0-.05.0197-.098.0548-.133l.4217-.422c.0262-.026.0597-.044.0961-.051s.0741-.003.1084.011.0636.038.0842.069.0317.067.0317.104v.266c0 .049-.0197.097-.0548.133l-.1561.156c-.0353.035-.083.054-.1328.054h-.2656c-.0497 0-.0973-.02-.1324-.055-.0352-.035-.055-.083-.0552-.132zm2.125 5.087v-.118c0-.071-.028-.138-.0778-.188s-.1174-.078-.1878-.078h-.3354c-.1793 0-.4432-.088-.5877-.196l-.3685-.277c-.0939-.07-.1701-.162-.2226-.266-.0524-.105-.0797-.221-.0796-.338v-.397c0-.131.0338-.259.0981-.372.0643-.114.1569-.209.2688-.276l.7122-.426c.1176-.07.2517-.108.3885-.108h.518c.1801 0 .3543.064.4914.181l.7172.616h.3038c.0698 0 .1388.014.2032.04.0643.027.1228.066.172.116l.2872.287c.057.056.134.088.2142.088h.2225c-.2726.495-.6672.912-1.1463 1.212-.4792.299-1.027.471-1.5914.5zm2.6364-2.243c-.0353 0-.0702-.007-.1028-.021-.0325-.014-.0619-.034-.0865-.059l-.5312-.541c-.0361-.037-.0562-.087-.0559-.139s.021-.102.0575-.138l.2076-.208v-.144c-.0001-.05-.0198-.098-.0548-.133l-.1561-.156c-.0353-.035-.083-.055-.1328-.055h-.2656c-.0371 0-.0734-.011-.1043-.032-.0308-.02-.0549-.05-.0691-.084s-.018-.072-.0107-.108c.0072-.037.025-.07.0513-.097l.156-.156c.0353-.035.0831-.054.1328-.054h.5313c.0497-.001.0973-.02.1324-.056.0351-.035.055-.082.0552-.132v-.156c-.0002-.05-.0201-.097-.0552-.132-.0351-.036-.0827-.055-.1324-.056h-.6093c-.0705 0-.138.028-.1878.078s-.0778.118-.0778.188v.075c.0001.055-.0173.11-.0498.155s-.0784.079-.1312.097l-.5246.174c-.0266.009-.0497.026-.0661.049-.0164.022-.0252.05-.0252.078v.036c0 .035-.014.069-.0389.094s-.0587.039-.0939.039h-.2657c-.0352 0-.069-.014-.0939-.039s-.0389-.059-.0389-.094-.014-.069-.0389-.094-.0587-.039-.0939-.039h-.0515c-.0247 0-.0488.007-.0699.02s-.0382.031-.0496.053l-.156.311c-.0221.044-.056.081-.0979.107-.042.025-.0903.039-.1396.039h-.3669c-.0704 0-.138-.028-.1878-.078s-.0778-.117-.0778-.188v-.42c.0002-.07.0283-.138.078-.187l.3337-.334c.0768-.077.1198-.182.1196-.291 0-.028.0088-.055.0252-.077.0164-.023.0395-.04.0661-.049l.6641-.221c.0274-.009.0523-.024.073-.044l.4449-.445c.0263-.027.0441-.06.0513-.096.0072-.037.0035-.075-.0107-.109s-.0383-.063-.0691-.0841c-.0309-.0206-.0672-.0317-.1043-.0317h-.3436l-.2657.2658v.133c0 .035-.014.069-.0389.094-.0249.024-.0587.038-.0939.038h-.2656c-.0352 0-.069-.014-.0939-.038-.0249-.025-.0389-.059-.0389-.094v-.332c0-.021.0049-.0413.0141-.0597s.0226-.0345.039-.0469l.4798-.3603c.0315-.0016.0631-.005.0946-.005 1.8345 0 3.3237 1.4889 3.3237 3.3209-.0005.363-.0611.725-.1793 1.069z"/></g><g clip-path="url(#c)" fill="#e8eff7"><path d="m104.5 44.1406c-2.408 0-4.359 1.9512-4.359 4.3594s1.951 4.3594 4.359 4.3594 4.359-1.9512 4.359-4.3594-1.951-4.3594-4.359-4.3594zm-2.072 2.4803c0-.0527.02-.1032.058-.1406l.446-.4465c.028-.0278.063-.0467.102-.0543.038-.0077.078-.0037.115.0113.036.0151.067.0406.089.0732.022.0327.033.0711.033.1104v.2813c0 .0527-.021.1032-.058.1406l-.165.1652c-.037.0372-.088.058-.141.058h-.281c-.052-.0002-.103-.0212-.14-.0584s-.058-.0876-.058-.1402zm2.25 5.3859v-.1248c0-.0746-.03-.1461-.083-.1988-.053-.0528-.124-.0824-.199-.0824h-.355c-.19 0-.469-.0932-.622-.2074l-.39-.2936c-.1-.0744-.18-.171-.236-.2821-.055-.1111-.084-.2336-.084-.3577v-.4202c0-.1381.036-.2738.104-.394.068-.1201.166-.2206.284-.2915l.754-.4518c.125-.0741.267-.1136.412-.1142h.548c.191-.0001.375.0679.521.1916l.759.6521h.322c.073.0001.146.0147.215.0431.068.0283.13.0699.182.1222l.304.3041c.06.0597.142.0932.227.0931h.235c-.288.5242-.706.9658-1.213 1.283-.508.3172-1.088.4994-1.685.5293zm2.791-2.3748c-.037.0002-.074-.0072-.109-.0217-.034-.0145-.065-.0358-.091-.0626l-.563-.5731c-.038-.0394-.059-.0922-.059-.1471s.022-.1075.061-.1464l.22-.2198v-.1529c0-.0527-.021-.1032-.058-.1406l-.166-.1653c-.037-.0371-.088-.0579-.14-.058h-.282c-.039 0-.077-.0116-.11-.0335-.033-.0218-.058-.0528-.073-.0892-.015-.0363-.019-.0762-.011-.1147.007-.0386.026-.074.054-.1018l.165-.1653c.037-.0371.088-.0579.141-.058h.562c.053-.0002.103-.0212.14-.0584.038-.0372.059-.0876.059-.1402v-.1652c0-.0526-.021-.103-.059-.1402-.037-.0372-.087-.0582-.14-.0585h-.645c-.074 0-.146.0297-.199.0824-.053.0528-.082.1243-.082.1989v.0791c0 .059-.018.1165-.053.1645-.034.0479-.083.0839-.139.1027l-.555.1845c-.028.0093-.053.0272-.07.0512-.018.024-.027.0528-.027.0824v.0387c0 .0373-.015.0731-.041.0994-.026.0264-.062.0412-.1.0412h-.281c-.037 0-.073-.0148-.099-.0412-.027-.0263-.041-.0621-.041-.0994s-.015-.0731-.042-.0994c-.026-.0264-.062-.0412-.099-.0412h-.055c-.026.0001-.051.0074-.074.021-.022.0136-.04.0331-.052.0563l-.165.3287c-.024.0467-.06.0859-.104.1132s-.096.0417-.148.0415h-.388c-.075 0-.146-.0296-.199-.0824-.053-.0527-.082-.1242-.082-.1988v-.4448c0-.0745.03-.1459.082-.1986l.354-.3533c.081-.0817.126-.1924.126-.3076 0-.0296.009-.0585.027-.0825.017-.024.042-.0419.07-.0511l.703-.2338c.029-.0098.055-.0261.077-.0475l.471-.4711c.028-.0278.047-.0632.055-.1017.007-.0386.003-.0785-.012-.1148s-.04-.0674-.073-.0892-.071-.0335-.11-.0335h-.364l-.281.2812v.1407c0 .0373-.015.073-.042.0994-.026.0264-.062.0412-.099.0412h-.281c-.038 0-.073-.0148-.1-.0412-.026-.0264-.041-.0621-.041-.0994v-.3516c0-.0218.005-.0433.015-.0628.01-.0196.024-.0366.041-.0497l.508-.3815c.034-.0017.067-.0052.101-.0052 1.942 0 3.519 1.5767 3.519 3.5156-.001.3852-.065.7677-.19 1.132z" opacity=".4"/><path d="m103.048 46.7615.166-.1652c.037-.0374.057-.0879.058-.1406v-.2813c-.001-.0393-.012-.0777-.034-.1104-.022-.0326-.053-.0581-.089-.0732-.036-.015-.076-.019-.115-.0113-.039.0076-.074.0265-.102.0543l-.446.4465c-.028.0278-.047.0632-.055.1018-.007.0385-.003.0784.012.1147.015.0364.04.0674.073.0892.033.0219.071.0335.11.0335h.282c.052 0 .103-.0208.14-.058zm1.449-1.7771c-.034 0-.067.0035-.1.0052l-.508.3815c-.018.0131-.032.0301-.042.0497-.01.0195-.015.041-.015.0628v.3516c0 .0373.015.073.041.0994.027.0264.063.0412.1.0412h.281c.037 0 .073-.0148.1-.0412.026-.0264.041-.0621.041-.0994v-.1407l.281-.2812h.364c.039 0 .078.0117.11.0335.033.0218.058.0529.073.0892s.019.0762.012.1148c-.008.0385-.027.0739-.054.1017l-.472.4711c-.021.0214-.048.0377-.077.0475l-.703.2338c-.028.0092-.053.0271-.07.0511s-.027.0529-.027.0825c.001.1152-.045.2259-.126.3076l-.354.3533c-.052.0527-.082.1241-.082.1986v.4448c0 .0746.029.1461.082.1988.053.0528.124.0824.199.0824h.388c.053.0002.104-.0142.148-.0415.045-.0273.081-.0665.104-.1132l.165-.3287c.012-.0232.03-.0427.053-.0563.022-.0136.048-.0209.074-.021h.054c.037 0 .073.0148.1.0412.026.0263.041.0621.041.0994s.015.0731.041.0994c.026.0264.062.0412.099.0412h.282c.037 0 .073-.0148.099-.0412.026-.0263.041-.0621.041-.0994v-.0387c0-.0296.01-.0584.027-.0824s.042-.0419.07-.0512l.555-.1845c.056-.0188.105-.0548.139-.1027.035-.048.053-.1055.053-.1645v-.0791c0-.0746.03-.1461.082-.1989.053-.0527.125-.0824.199-.0824h.645c.053.0003.103.0213.141.0585.037.0372.058.0876.058.1402v.1652c0 .0526-.021.103-.058.1402-.038.0372-.088.0582-.141.0584h-.562c-.053.0001-.103.0209-.141.058l-.165.1653c-.028.0278-.047.0632-.054.1018-.008.0385-.004.0784.011.1147.015.0364.041.0674.073.0892.033.0219.071.0335.111.0335h.281c.053.0001.103.0209.141.058l.165.1653c.037.0374.058.0879.058.1406v.1529l-.22.2198c-.039.0389-.061.0915-.061.1464s.021.1077.059.1471l.563.5731c.026.0268.057.0481.091.0626.035.0145.072.0219.109.0217h.357c.125-.3643.189-.7468.19-1.132 0-1.9389-1.577-3.5156-3.519-3.5156zm2.617 5.117-.304-.3041c-.052-.0523-.114-.0939-.182-.1222-.068-.0284-.141-.043-.215-.0431h-.322l-.759-.6521c-.145-.1237-.33-.1917-.521-.1916h-.548c-.145.0006-.287.0401-.411.1142l-.755.4518c-.118.0709-.216.1714-.284.2915-.068.1202-.104.2559-.104.394v.4202c0 .1241.029.2466.084.3577.056.1111.137.2077.236.2821l.39.2936c.153.1142.433.2074.622.2074h.356c.074 0 .146.0296.198.0824.053.0527.083.1242.083.1988v.1248c.597-.0299 1.177-.2121 1.685-.5293.507-.3172.925-.7588 1.213-1.283h-.235c-.085.0001-.167-.0334-.227-.0931z"/></g></svg>