<svg fill="none" height="25" viewBox="0 0 24 25" width="24" xmlns="http://www.w3.org/2000/svg"><path d="m8.33957 3.03537.9494 4.58421c.04285.20691.16657.38749.34418.50418l.45235.29719c-1.40945.47627-2.67397 1.40923-3.55446 2.74945-2.09457 3.1882-1.20802 7.4689 1.9807 9.5638 3.18876 2.095 7.46956 1.2091 9.56416-1.979 2.0946-3.1882 1.208-7.469-1.9807-9.56388-1.3404-.88064-2.8716-1.23511-4.3543-1.1129l.2971-.45228c.1167-.17758.1585-.39242.1156-.59933l-.9494-4.58421c-.0895-.43221-.5113-.70935-.9408-.61809l-1.30125.26927c-.43223.08944-.70932.5112-.62258.94159zm6.29733 8.37573c1.962 1.2891 2.5095 3.9209 1.2189 5.8854-1.2889 1.9618-3.9208 2.5088-5.8857 1.2179-1.96207-1.289-2.50954-3.9209-1.21889-5.8854 1.28879-1.9617 3.92079-2.5088 5.88569-1.2179z" fill="#cbd7e6"/></svg>