<svg fill="none" height="9" viewBox="0 0 9 9" width="9" xmlns="http://www.w3.org/2000/svg"><path d="m4.32721.765259c-2.27445 0-4.117249 1.842801-4.117249 4.117251s1.842799 4.11725 4.117249 4.11725 4.11725-1.8428 4.11725-4.11725-1.8428-4.117251-4.11725-4.117251zm-1.95735 2.342521c.00002-.04977.01971-.09751.05478-.13282l.42169-.42169c.02627-.02622.05972-.04406.09613-.05128.0364-.00722.07413-.00349.10842.01072.03428.01421.06359.03827.08421.06913s.03164.06713.03166.10425v.26563c-.00003.04976-.01972.0975-.05479.13281l-.15606.15606c-.03531.03507-.08305.05476-.13281.05479h-.26563c-.04969-.00022-.09728-.02006-.13241-.05519-.03514-.03514-.05497-.08273-.05519-.13241zm2.12503 5.08679v-.11787c0-.07045-.02798-.13801-.0778-.18783-.04982-.04981-.11738-.0778-.18783-.0778h-.33536c-.17929 0-.44326-.08799-.5877-.1959l-.36856-.27725c-.09389-.07029-.17009-.16151-.22255-.26642-.05245-.1049-.07971-.2206-.0796-.33789v-.39678c-.00004-.13043.03375-.25865.09805-.37213.06431-.11348.15694-.20834.26885-.27534l.71222-.42667c.11752-.07004.25167-.10731.38848-.10791h.51798c.18011-.00003.35433.06413.49141.18096l.7172.61593h.30381c.06973.00006.13876.01388.20314.04066.06439.02678.12285.06599.17206.11539l.28721.28722c.057.05641.13397.08804.21417.08799h.22246c-.27256.49502-.66715.91213-1.14631 1.21171-.47915.29958-1.02694.47167-1.59133.49993zm2.63637-2.2429c-.03528.00013-.07023-.00686-.10275-.02056-.03252-.01369-.06195-.0338-.08651-.05913l-.53126-.54122c-.0361-.03722-.05615-.08712-.05584-.13897.00031-.05184.02096-.1015.0575-.13828l.20752-.20752v-.14444c-.00002-.04977-.01971-.0975-.05478-.13281l-.15606-.15606c-.03531-.03507-.08305-.05476-.13281-.05479h-.26563c-.03712-.00001-.0734-.01103-.10425-.03165-.03086-.02062-.05492-.04993-.06913-.08421-.01421-.03429-.01794-.07202-.01072-.10843.00722-.0364.02506-.06985.05128-.09612l.15606-.15606c.03531-.03507.08305-.05476.13281-.05479h.53126c.04969-.00021.09728-.02005.13241-.05518.03514-.03514.05497-.08273.05519-.13242v-.15605c-.00022-.04969-.02005-.09728-.05519-.13242-.03513-.03513-.08272-.05497-.13241-.05518h-.60928c-.07045 0-.13802.02798-.18783.0778-.04982.04981-.0778.11738-.0778.18783v.0747c.00012.05573-.01729.11009-.04977.15537-.03247.04529-.07837.07922-.13119.09698l-.52462.17432c-.02657.00874-.0497.02564-.06609.0483-.0164.02265-.02522.04991-.02522.07787v.03653c0 .03522-.01399.069-.0389.09391s-.05869.0389-.09392.0389h-.26562c-.03523 0-.06901-.01399-.09392-.0389s-.0389-.05869-.0389-.09391c0-.03523-.01399-.06901-.0389-.09392-.02491-.0249-.05869-.0389-.09391-.0389h-.05147c-.02469.00011-.04889.00698-.06996.01985-.02107.01288-.03821.03128-.04957.0532l-.15606.31046c-.02203.04405-.05593.08107-.09788.10689-.04194.02581-.09027.03939-.13953.0392h-.3669c-.07044 0-.13801-.02798-.18782-.0778-.04982-.04981-.0778-.11738-.0778-.18783v-.42002c.00022-.07038.02827-.13782.07802-.1876l.3337-.3337c.07677-.07718.11976-.18167.11953-.29053 0-.02797.00883-.05522.02522-.07788.0164-.02265.03953-.03956.06609-.0483l.66408-.2208c.02739-.00929.05236-.0246.07304-.04483l.44493-.44492c.02622-.02627.04407-.05972.05129-.09613s.00349-.07413-.01072-.10842c-.01422-.03429-.03827-.06359-.06913-.08422-.03086-.02062-.06714-.03163-.10425-.03165h-.34366l-.26563.26563v.13281c0 .03523-.01399.06901-.0389.09392s-.05869.0389-.09391.0389h-.26563c-.03523 0-.06901-.01399-.09392-.0389-.0249-.02491-.0389-.05869-.0389-.09392v-.33203c.00007-.02061.0049-.04092.01411-.05935.00922-.01844.02257-.03449.03902-.0469l.47979-.36026c.03155-.00166.06309-.00498.09463-.00498 1.8345 0 3.32369 1.48918 3.32369 3.32036-.00053.36382-.06111.72507-.1793 1.06916z" fill="#cbd7e6"/></svg>