<svg fill="none" height="31" viewBox="0 0 32 31" width="32" xmlns="http://www.w3.org/2000/svg"><path d="m26.4188 18.3352-2.0835-.9398c.9307-3.5393-.4914-7.2988-3.5317-9.33599l.9398-2.08347c.1633-.36199.0024-.78743-.3596-.95071l-1.3104-.59108c-.362-.16328-.7874-.00234-.9507.35964l-.9398 2.08347c-3.5394-.93074-7.2989.49142-9.33604 3.53164l-2.08347-.93976c-.36199-.16328-.78743-.00234-.95072.35964l-.59107 1.31032c-.16328.362-.00234.7875.35964.9508l2.08347.9398c-.93075 3.5393.49141 7.2988 3.53169 9.336l-.9398 2.0835c-.1633.362-.0024.7874.3596.9507l1.3104.5911c.362.1632.7874.0023.9507-.3597l.9398-2.0835c3.5394.9308 7.2989-.4914 9.336-3.5316l2.0835.9398c.362.1632.7874.0023.9507-.3597l.5911-1.3103c.1633-.362.0023-.7875-.3596-.9508zm-12.7831 2.1188c-2.8951-1.3059-4.18285-4.7111-2.8771-7.6057 1.3057-2.89471 4.7106-4.18308 7.6057-2.87718 2.8951 1.30588 4.1829 4.71108 2.8771 7.60568-1.3057 2.8947-4.7106 4.1831-7.6057 2.8772zm3.9898-8.8449c-1.9902-.8977-4.3313-.0121-5.229 1.978s-.0121 4.3312 1.978 5.2289c1.9902.8977 4.3313.0121 5.229-1.978s.0121-4.3312-1.978-5.2289z" fill="#cbd7e6"/></svg>