<svg fill="none" height="30" viewBox="0 0 29 30" width="29" xmlns="http://www.w3.org/2000/svg"><path d="m28.3499 25.2486-5.5299-5.529c-.2496-.2495-.5879-.3882-.9429-.3882h-.9041c1.5308-1.9575 2.4405-4.4198 2.4405-7.0983 0-6.37191-5.1639-11.534858-11.5368-11.534858-6.37302 0-11.536856 5.162948-11.536856 11.534858 0 6.3719 5.163836 11.5348 11.536856 11.5348 2.6789 0 5.1416-.9095 7.0995-2.44v.9039c0 .3549.1387.6932.3883.9427l5.5299 5.529c.5214.5213 1.3644.5213 1.8803 0l1.5696-1.5694c.5214-.5213.5214-1.3642.0056-1.8855zm-16.4732-5.9172c-3.92145 0-7.09962-3.172-7.09962-7.0983 0-3.92075 3.17262-7.09838 7.09962-7.09838 3.9214 0 7.0995 3.17208 7.0995 7.09838 0 3.9207-3.1726 7.0983-7.0995 7.0983z" fill="#25a481"/></svg>